TITLE ""
FILE "LR_black_phrase_A08.mp3" MP3
  TRACK 01 AUDIO
    TITLE "LR_black_phrase_A08_001"
    INDEX 01 00:00:00
  TRACK 02 AUDIO
    TITLE "LR_black_phrase_A08_002"
    INDEX 01 00:00:14
  TRACK 03 AUDIO
    TITLE "LR_black_phrase_A08_003"
    INDEX 01 00:01:33
  TRACK 04 AUDIO
    TITLE "LR_black_phrase_A08_004"
    INDEX 01 00:01:74
  TRACK 05 AUDIO
    TITLE "LR_black_phrase_A08_005"
    INDEX 01 00:04:43
  TRACK 06 AUDIO
    TITLE "LR_black_phrase_A08_006"
    INDEX 01 00:05:41
  TRACK 07 AUDIO
    TITLE "LR_black_phrase_A08_007"
    INDEX 01 00:07:12
  TRACK 08 AUDIO
    TITLE "LR_black_phrase_A08_008"
    INDEX 01 00:07:50
  TRACK 09 AUDIO
    TITLE "LR_black_phrase_A08_009"
    INDEX 01 00:09:62
  TRACK 10 AUDIO
    TITLE "LR_black_phrase_A08_010"
    INDEX 01 00:10:17
  TRACK 11 AUDIO
    TITLE "LR_black_phrase_A08_011"
    INDEX 01 00:12:31
  TRACK 12 AUDIO
    TITLE "LR_black_phrase_A08_012"
    INDEX 01 00:13:34
  TRACK 13 AUDIO
    TITLE "LR_black_phrase_A08_013"
    INDEX 01 00:14:42
  TRACK 14 AUDIO
    TITLE "LR_black_phrase_A08_014"
    INDEX 01 00:15:08
  TRACK 15 AUDIO
    TITLE "LR_black_phrase_A08_015"
    INDEX 01 00:16:35
  TRACK 16 AUDIO
    TITLE "LR_black_phrase_A08_016"
    INDEX 01 00:17:34
  TRACK 17 AUDIO
    TITLE "LR_black_phrase_A08_017"
    INDEX 01 00:19:66
  TRACK 18 AUDIO
    TITLE "LR_black_phrase_A08_018"
    INDEX 01 00:20:35
  TRACK 19 AUDIO
    TITLE "LR_black_phrase_A08_019"
    INDEX 01 00:22:37
  TRACK 20 AUDIO
    TITLE "LR_black_phrase_A08_020"
    INDEX 01 00:22:69
  TRACK 21 AUDIO
    TITLE "LR_black_phrase_A08_021"
    INDEX 01 00:24:70
  TRACK 22 AUDIO
    TITLE "LR_black_phrase_A08_022"
    INDEX 01 00:25:75
  TRACK 23 AUDIO
    TITLE "LR_black_phrase_A08_023"
    INDEX 01 00:27:21
  TRACK 24 AUDIO
    TITLE "LR_black_phrase_A08_024"
    INDEX 01 00:27:60
  TRACK 25 AUDIO
    TITLE "LR_black_phrase_A08_025"
    INDEX 01 00:31:15
  TRACK 26 AUDIO
    TITLE "LR_black_phrase_A08_026"
    INDEX 01 00:32:16
  TRACK 27 AUDIO
    TITLE "LR_black_phrase_A08_027"
    INDEX 01 00:34:33
  TRACK 28 AUDIO
    TITLE "LR_black_phrase_A08_028"
    INDEX 01 00:34:72
  TRACK 29 AUDIO
    TITLE "LR_black_phrase_A08_029"
    INDEX 01 00:37:17
  TRACK 30 AUDIO
    TITLE "LR_black_phrase_A08_030"
    INDEX 01 00:37:47
  TRACK 31 AUDIO
    TITLE "LR_black_phrase_A08_031"
    INDEX 01 00:39:67
  TRACK 32 AUDIO
    TITLE "LR_black_phrase_A08_032"
    INDEX 01 00:40:67
  TRACK 33 AUDIO
    TITLE "LR_black_phrase_A08_033"
    INDEX 01 00:42:03
  TRACK 34 AUDIO
    TITLE "LR_black_phrase_A08_034"
    INDEX 01 00:42:38
  TRACK 35 AUDIO
    TITLE "LR_black_phrase_A08_035"
    INDEX 01 00:45:21
  TRACK 36 AUDIO
    TITLE "LR_black_phrase_A08_036"
    INDEX 01 00:46:20
  TRACK 37 AUDIO
    TITLE "LR_black_phrase_A08_037"
    INDEX 01 00:48:54
  TRACK 38 AUDIO
    TITLE "LR_black_phrase_A08_038"
    INDEX 01 00:49:15
  TRACK 39 AUDIO
    TITLE "LR_black_phrase_A08_039"
    INDEX 01 00:51:53
  TRACK 40 AUDIO
    TITLE "LR_black_phrase_A08_040"
    INDEX 01 00:51:72
  TRACK 41 AUDIO
    TITLE "LR_black_phrase_A08_041"
    INDEX 01 00:54:35
  TRACK 42 AUDIO
    TITLE "LR_black_phrase_A08_042"
    INDEX 01 00:55:31
  TRACK 43 AUDIO
    TITLE "LR_black_phrase_A08_043"
    INDEX 01 00:56:52
  TRACK 44 AUDIO
    TITLE "LR_black_phrase_A08_044"
    INDEX 01 00:57:10
  TRACK 45 AUDIO
    TITLE "LR_black_phrase_A08_045"
    INDEX 01 01:00:46
  TRACK 46 AUDIO
    TITLE "LR_black_phrase_A08_046"
    INDEX 01 01:01:45
  TRACK 47 AUDIO
    TITLE "LR_black_phrase_A08_047"
    INDEX 01 01:03:13
  TRACK 48 AUDIO
    TITLE "LR_black_phrase_A08_048"
    INDEX 01 01:03:46
  TRACK 49 AUDIO
    TITLE "LR_black_phrase_A08_049"
    INDEX 01 01:05:69
  TRACK 50 AUDIO
    TITLE "LR_black_phrase_A08_050"
    INDEX 01 01:06:11
  TRACK 51 AUDIO
    TITLE "LR_black_phrase_A08_051"
    INDEX 01 01:08:34
  TRACK 52 AUDIO
    TITLE "LR_black_phrase_A08_052"
    INDEX 01 01:09:27
  TRACK 53 AUDIO
    TITLE "LR_black_phrase_A08_053"
    INDEX 01 01:10:42
  TRACK 54 AUDIO
    TITLE "LR_black_phrase_A08_054"
    INDEX 01 01:11:04
  TRACK 55 AUDIO
    TITLE "LR_black_phrase_A08_055"
    INDEX 01 01:12:25
  TRACK 56 AUDIO
    TITLE "LR_black_phrase_A08_056"
    INDEX 01 01:13:25
  TRACK 57 AUDIO
    TITLE "LR_black_phrase_A08_057"
    INDEX 01 01:15:69
  TRACK 58 AUDIO
    TITLE "LR_black_phrase_A08_058"
    INDEX 01 01:16:27
  TRACK 59 AUDIO
    TITLE "LR_black_phrase_A08_059"
    INDEX 01 01:18:32
  TRACK 60 AUDIO
    TITLE "LR_black_phrase_A08_060"
    INDEX 01 01:18:52
  TRACK 61 AUDIO
    TITLE "LR_black_phrase_A08_061"
    INDEX 01 01:20:56
  TRACK 62 AUDIO
    TITLE "LR_black_phrase_A08_062"
    INDEX 01 01:21:52
  TRACK 63 AUDIO
    TITLE "LR_black_phrase_A08_063"
    INDEX 01 01:23:08
  TRACK 64 AUDIO
    TITLE "LR_black_phrase_A08_064"
    INDEX 01 01:23:49
  TRACK 65 AUDIO
    TITLE "LR_black_phrase_A08_065"
    INDEX 01 01:26:57
  TRACK 66 AUDIO
    TITLE "LR_black_phrase_A08_066"
    INDEX 01 01:27:56
  TRACK 67 AUDIO
    TITLE "LR_black_phrase_A08_067"
    INDEX 01 01:30:06
  TRACK 68 AUDIO
    TITLE "LR_black_phrase_A08_068"
    INDEX 01 01:30:45
  TRACK 69 AUDIO
    TITLE "LR_black_phrase_A08_069"
    INDEX 01 01:33:12
  TRACK 70 AUDIO
    TITLE "LR_black_phrase_A08_070"
    INDEX 01 01:33:41
  TRACK 71 AUDIO
    TITLE "LR_black_phrase_A08_071"
    INDEX 01 01:36:08
  TRACK 72 AUDIO
    TITLE "LR_black_phrase_A08_072"
    INDEX 01 01:37:16
  TRACK 73 AUDIO
    TITLE "LR_black_phrase_A08_073"
    INDEX 01 01:38:43
  TRACK 74 AUDIO
    TITLE "LR_black_phrase_A08_074"
    INDEX 01 01:39:07
  TRACK 75 AUDIO
    TITLE "LR_black_phrase_A08_075"
    INDEX 01 01:40:28
  TRACK 76 AUDIO
    TITLE "LR_black_phrase_A08_076"
    INDEX 01 01:41:27
  TRACK 77 AUDIO
    TITLE "LR_black_phrase_A08_077"
    INDEX 01 01:43:53
  TRACK 78 AUDIO
    TITLE "LR_black_phrase_A08_078"
    INDEX 01 01:44:20
  TRACK 79 AUDIO
    TITLE "LR_black_phrase_A08_079"
    INDEX 01 01:46:54
  TRACK 80 AUDIO
    TITLE "LR_black_phrase_A08_080"
    INDEX 01 01:47:10
  TRACK 81 AUDIO
    TITLE "LR_black_phrase_A08_081"
    INDEX 01 01:49:44
  TRACK 82 AUDIO
    TITLE "LR_black_phrase_A08_082"
    INDEX 01 01:50:50
  TRACK 83 AUDIO
    TITLE "LR_black_phrase_A08_083"
    INDEX 01 01:51:67
  TRACK 84 AUDIO
    TITLE "LR_black_phrase_A08_084"
    INDEX 01 01:52:27
  TRACK 85 AUDIO
    TITLE "LR_black_phrase_A08_085"
    INDEX 01 01:55:57
  TRACK 86 AUDIO
    TITLE "LR_black_phrase_A08_086"
    INDEX 01 01:56:56
  TRACK 87 AUDIO
    TITLE "LR_black_phrase_A08_087"
    INDEX 01 01:58:37
  TRACK 88 AUDIO
    TITLE "LR_black_phrase_A08_088"
    INDEX 01 01:58:71
  TRACK 89 AUDIO
    TITLE "LR_black_phrase_A08_089"
    INDEX 01 02:00:58
  TRACK 90 AUDIO
    TITLE "LR_black_phrase_A08_090"
    INDEX 01 02:01:06
  TRACK 91 AUDIO
    TITLE "LR_black_phrase_A08_091"
    INDEX 01 02:02:68
  TRACK 92 AUDIO
    TITLE "LR_black_phrase_A08_092"
    INDEX 01 02:03:68
  TRACK 93 AUDIO
    TITLE "LR_black_phrase_A08_093"
    INDEX 01 02:05:12
  TRACK 94 AUDIO
    TITLE "LR_black_phrase_A08_094"
    INDEX 01 02:05:47
  TRACK 95 AUDIO
    TITLE "LR_black_phrase_A08_095"
    INDEX 01 02:08:55
  TRACK 96 AUDIO
    TITLE "LR_black_phrase_A08_096"
    INDEX 01 02:09:49
  TRACK 97 AUDIO
    TITLE "LR_black_phrase_A08_097"
    INDEX 01 02:11:13
  TRACK 98 AUDIO
    TITLE "LR_black_phrase_A08_098"
    INDEX 01 02:11:48
  TRACK 99 AUDIO
    TITLE "LR_black_phrase_A08_099"
    INDEX 01 02:13:51
  TRACK 100 AUDIO
    TITLE "LR_black_phrase_A08_100"
    INDEX 01 02:13:72
  TRACK 101 AUDIO
    TITLE "LR_black_phrase_A08_101"
    INDEX 01 02:16:02
  TRACK 102 AUDIO
    TITLE "LR_black_phrase_A08_102"
    INDEX 01 02:16:73
  TRACK 103 AUDIO
    TITLE "LR_black_phrase_A08_103"
    INDEX 01 02:18:13
  TRACK 104 AUDIO
    TITLE "LR_black_phrase_A08_104"
    INDEX 01 02:18:50
  TRACK 105 AUDIO
    TITLE "LR_black_phrase_A08_105"
    INDEX 01 02:19:71
  TRACK 106 AUDIO
    TITLE "LR_black_phrase_A08_106"
    INDEX 01 02:20:70
  TRACK 107 AUDIO
    TITLE "LR_black_phrase_A08_107"
    INDEX 01 02:23:28
  TRACK 108 AUDIO
    TITLE "LR_black_phrase_A08_108"
    INDEX 01 02:23:59
  TRACK 109 AUDIO
    TITLE "LR_black_phrase_A08_109"
    INDEX 01 02:26:12
  TRACK 110 AUDIO
    TITLE "LR_black_phrase_A08_110"
    INDEX 01 02:26:32
  TRACK 111 AUDIO
    TITLE "LR_black_phrase_A08_111"
    INDEX 01 02:28:58
  TRACK 112 AUDIO
    TITLE "LR_black_phrase_A08_112"
    INDEX 01 02:29:56
  TRACK 113 AUDIO
    TITLE "LR_black_phrase_A08_113"
    INDEX 01 02:30:53
  TRACK 114 AUDIO
    TITLE "LR_black_phrase_A08_114"
    INDEX 01 02:31:25
  TRACK 115 AUDIO
    TITLE "LR_black_phrase_A08_115"
    INDEX 01 02:34:49
  TRACK 116 AUDIO
    TITLE "LR_black_phrase_A08_116"
    INDEX 01 02:35:50
  TRACK 117 AUDIO
    TITLE "LR_black_phrase_A08_117"
    INDEX 01 02:38:27
  TRACK 118 AUDIO
    TITLE "LR_black_phrase_A08_118"
    INDEX 01 02:38:58
  TRACK 119 AUDIO
    TITLE "LR_black_phrase_A08_119"
    INDEX 01 02:41:57
  TRACK 120 AUDIO
    TITLE "LR_black_phrase_A08_120"
    INDEX 01 02:42:05
  TRACK 121 AUDIO
    TITLE "LR_black_phrase_A08_121"
    INDEX 01 02:45:02
  TRACK 122 AUDIO
    TITLE "LR_black_phrase_A08_122"
    INDEX 01 02:45:74
  TRACK 123 AUDIO
    TITLE "LR_black_phrase_A08_123"
    INDEX 01 02:47:12
  TRACK 124 AUDIO
    TITLE "LR_black_phrase_A08_124"
    INDEX 01 02:47:53
  TRACK 125 AUDIO
    TITLE "LR_black_phrase_A08_125"
    INDEX 01 02:51:18
  TRACK 126 AUDIO
    TITLE "LR_black_phrase_A08_126"
    INDEX 01 02:52:13
  TRACK 127 AUDIO
    TITLE "LR_black_phrase_A08_127"
    INDEX 01 02:53:50
  TRACK 128 AUDIO
    TITLE "LR_black_phrase_A08_128"
    INDEX 01 02:54:22
  TRACK 129 AUDIO
    TITLE "LR_black_phrase_A08_129"
    INDEX 01 02:56:13
  TRACK 130 AUDIO
    TITLE "LR_black_phrase_A08_130"
    INDEX 01 02:56:43
  TRACK 131 AUDIO
    TITLE "LR_black_phrase_A08_131"
    INDEX 01 02:58:36
  TRACK 132 AUDIO
    TITLE "LR_black_phrase_A08_132"
    INDEX 01 02:59:41
  TRACK 133 AUDIO
    TITLE "LR_black_phrase_A08_133"
    INDEX 01 03:00:56
  TRACK 134 AUDIO
    TITLE "LR_black_phrase_A08_134"
    INDEX 01 03:01:20
  TRACK 135 AUDIO
    TITLE "LR_black_phrase_A08_135"
    INDEX 01 03:03:07
  TRACK 136 AUDIO
    TITLE "LR_black_phrase_A08_136"
    INDEX 01 03:04:03
  TRACK 137 AUDIO
    TITLE "LR_black_phrase_A08_137"
    INDEX 01 03:06:49
  TRACK 138 AUDIO
    TITLE "LR_black_phrase_A08_138"
    INDEX 01 03:07:07
  TRACK 139 AUDIO
    TITLE "LR_black_phrase_A08_139"
    INDEX 01 03:09:30
  TRACK 140 AUDIO
    TITLE "LR_black_phrase_A08_140"
    INDEX 01 03:09:51
  TRACK 141 AUDIO
    TITLE "LR_black_phrase_A08_141"
    INDEX 01 03:12:01
  TRACK 142 AUDIO
    TITLE "LR_black_phrase_A08_142"
    INDEX 01 03:13:04
  TRACK 143 AUDIO
    TITLE "LR_black_phrase_A08_143"
    INDEX 01 03:14:07
  TRACK 144 AUDIO
    TITLE "LR_black_phrase_A08_144"
    INDEX 01 03:14:44
  TRACK 145 AUDIO
    TITLE "LR_black_phrase_A08_145"
    INDEX 01 03:17:10
  TRACK 146 AUDIO
    TITLE "LR_black_phrase_A08_146"
    INDEX 01 03:18:09
  TRACK 147 AUDIO
    TITLE "LR_black_phrase_A08_147"
    INDEX 01 03:20:06
  TRACK 148 AUDIO
    TITLE "LR_black_phrase_A08_148"
    INDEX 01 03:20:45
  TRACK 149 AUDIO
    TITLE "LR_black_phrase_A08_149"
    INDEX 01 03:22:03
  TRACK 150 AUDIO
    TITLE "LR_black_phrase_A08_150"
    INDEX 01 03:22:30
  TRACK 151 AUDIO
    TITLE "LR_black_phrase_A08_151"
    INDEX 01 03:23:61
  TRACK 152 AUDIO
    TITLE "LR_black_phrase_A08_152"
    INDEX 01 03:24:61
  TRACK 153 AUDIO
    TITLE "LR_black_phrase_A08_153"
    INDEX 01 03:26:10
  TRACK 154 AUDIO
    TITLE "LR_black_phrase_A08_154"
    INDEX 01 03:26:44
  TRACK 155 AUDIO
    TITLE "LR_black_phrase_A08_155"
    INDEX 01 03:29:07
  TRACK 156 AUDIO
    TITLE "LR_black_phrase_A08_156"
    INDEX 01 03:30:08
  TRACK 157 AUDIO
    TITLE "LR_black_phrase_A08_157"
    INDEX 01 03:32:11
  TRACK 158 AUDIO
    TITLE "LR_black_phrase_A08_158"
    INDEX 01 03:32:46
  TRACK 159 AUDIO
    TITLE "LR_black_phrase_A08_159"
    INDEX 01 03:34:51
  TRACK 160 AUDIO
    TITLE "LR_black_phrase_A08_160"
    INDEX 01 03:34:75
  TRACK 161 AUDIO
    TITLE "LR_black_phrase_A08_161"
    INDEX 01 03:37:04
  TRACK 162 AUDIO
    TITLE "LR_black_phrase_A08_162"
    INDEX 01 03:38:08
  TRACK 163 AUDIO
    TITLE "LR_black_phrase_A08_163"
    INDEX 01 03:39:25
  TRACK 164 AUDIO
    TITLE "LR_black_phrase_A08_164"
    INDEX 01 03:39:60
  TRACK 165 AUDIO
    TITLE "LR_black_phrase_A08_165"
    INDEX 01 03:43:48
  TRACK 166 AUDIO
    TITLE "LR_black_phrase_A08_166"
    INDEX 01 03:44:48
  TRACK 167 AUDIO
    TITLE "LR_black_phrase_A08_167"
    INDEX 01 03:45:69
  TRACK 168 AUDIO
    TITLE "LR_black_phrase_A08_168"
    INDEX 01 03:46:27
  TRACK 169 AUDIO
    TITLE "LR_black_phrase_A08_169"
    INDEX 01 03:48:14
  TRACK 170 AUDIO
    TITLE "LR_black_phrase_A08_170"
    INDEX 01 03:48:32
  TRACK 171 AUDIO
    TITLE "LR_black_phrase_A08_171"
    INDEX 01 03:50:19
  TRACK 172 AUDIO
    TITLE "LR_black_phrase_A08_172"
    INDEX 01 03:51:12
  TRACK 173 AUDIO
    TITLE "LR_black_phrase_A08_173"
    INDEX 01 03:52:22
  TRACK 174 AUDIO
    TITLE "LR_black_phrase_A08_174"
    INDEX 01 03:52:57
  TRACK 175 AUDIO
    TITLE "LR_black_phrase_A08_175"
    INDEX 01 03:56:31
  TRACK 176 AUDIO
    TITLE "LR_black_phrase_A08_176"
    INDEX 01 03:57:29
  TRACK 177 AUDIO
    TITLE "LR_black_phrase_A08_177"
    INDEX 01 03:59:24
  TRACK 178 AUDIO
    TITLE "LR_black_phrase_A08_178"
    INDEX 01 03:59:57
  TRACK 179 AUDIO
    TITLE "LR_black_phrase_A08_179"
    INDEX 01 04:01:50
  TRACK 180 AUDIO
    TITLE "LR_black_phrase_A08_180"
    INDEX 01 04:01:75
  TRACK 181 AUDIO
    TITLE "LR_black_phrase_A08_181"
    INDEX 01 04:03:57
  TRACK 182 AUDIO
    TITLE "LR_black_phrase_A08_182"
    INDEX 01 04:04:72
  TRACK 183 AUDIO
    TITLE "LR_black_phrase_A08_183"
    INDEX 01 04:06:33
  TRACK 184 AUDIO
    TITLE "LR_black_phrase_A08_184"
    INDEX 01 04:06:75
  TRACK 185 AUDIO
    TITLE "LR_black_phrase_A08_185"
    INDEX 01 04:11:03
  TRACK 186 AUDIO
    TITLE "LR_black_phrase_A08_186"
    INDEX 01 04:12:03
  TRACK 187 AUDIO
    TITLE "LR_black_phrase_A08_187"
    INDEX 01 04:15:30
  TRACK 188 AUDIO
    TITLE "LR_black_phrase_A08_188"
    INDEX 01 04:15:70
  TRACK 189 AUDIO
    TITLE "LR_black_phrase_A08_189"
    INDEX 01 04:19:22
  TRACK 190 AUDIO
    TITLE "LR_black_phrase_A08_190"
    INDEX 01 04:19:52
  TRACK 191 AUDIO
    TITLE "LR_black_phrase_A08_191"
    INDEX 01 04:23:04
  TRACK 192 AUDIO
    TITLE "LR_black_phrase_A08_192"
    INDEX 01 04:24:10
  TRACK 193 AUDIO
    TITLE "LR_black_phrase_A08_193"
    INDEX 01 04:25:13
  TRACK 194 AUDIO
    TITLE "LR_black_phrase_A08_194"
    INDEX 01 04:25:50
  TRACK 195 AUDIO
    TITLE "LR_black_phrase_A08_195"
    INDEX 01 04:26:56
  TRACK 196 AUDIO
    TITLE "LR_black_phrase_A08_196"
    INDEX 01 04:27:55
  TRACK 197 AUDIO
    TITLE "LR_black_phrase_A08_197"
    INDEX 01 04:30:14
  TRACK 198 AUDIO
    TITLE "LR_black_phrase_A08_198"
    INDEX 01 04:30:52
  TRACK 199 AUDIO
    TITLE "LR_black_phrase_A08_199"
    INDEX 01 04:32:66
  TRACK 200 AUDIO
    TITLE "LR_black_phrase_A08_200"
    INDEX 01 04:33:19
  TRACK 201 AUDIO
    TITLE "LR_black_phrase_A08_201"
    INDEX 01 04:35:33
  TRACK 202 AUDIO
    TITLE "LR_black_phrase_A08_202"
    INDEX 01 04:36:37
  TRACK 203 AUDIO
    TITLE "LR_black_phrase_A08_203"
    INDEX 01 04:37:57
  TRACK 204 AUDIO
    TITLE "LR_black_phrase_A08_204"
    INDEX 01 04:38:20
  TRACK 205 AUDIO
    TITLE "LR_black_phrase_A08_205"
    INDEX 01 04:40:72
  TRACK 206 AUDIO
    TITLE "LR_black_phrase_A08_206"
    INDEX 01 04:41:69
  TRACK 207 AUDIO
    TITLE "LR_black_phrase_A08_207"
    INDEX 01 04:43:72
  TRACK 208 AUDIO
    TITLE "LR_black_phrase_A08_208"
    INDEX 01 04:44:36
  TRACK 209 AUDIO
    TITLE "LR_black_phrase_A08_209"
    INDEX 01 04:46:66
  TRACK 210 AUDIO
    TITLE "LR_black_phrase_A08_210"
    INDEX 01 04:47:19
  TRACK 211 AUDIO
    TITLE "LR_black_phrase_A08_211"
    INDEX 01 04:49:49
  TRACK 212 AUDIO
    TITLE "LR_black_phrase_A08_212"
    INDEX 01 04:50:46
  TRACK 213 AUDIO
    TITLE "LR_black_phrase_A08_213"
    INDEX 01 04:51:63
  TRACK 214 AUDIO
    TITLE "LR_black_phrase_A08_214"
    INDEX 01 04:52:22
  TRACK 215 AUDIO
    TITLE "LR_black_phrase_A08_215"
    INDEX 01 04:54:50
  TRACK 216 AUDIO
    TITLE "LR_black_phrase_A08_216"
    INDEX 01 04:55:52
  TRACK 217 AUDIO
    TITLE "LR_black_phrase_A08_217"
    INDEX 01 04:57:46
  TRACK 218 AUDIO
    TITLE "LR_black_phrase_A08_218"
    INDEX 01 04:58:05
  TRACK 219 AUDIO
    TITLE "LR_black_phrase_A08_219"
    INDEX 01 05:00:23
  TRACK 220 AUDIO
    TITLE "LR_black_phrase_A08_220"
    INDEX 01 05:00:43
  TRACK 221 AUDIO
    TITLE "LR_black_phrase_A08_221"
    INDEX 01 05:02:61
  TRACK 222 AUDIO
    TITLE "LR_black_phrase_A08_222"
    INDEX 01 05:03:55
  TRACK 223 AUDIO
    TITLE "LR_black_phrase_A08_223"
    INDEX 01 05:05:24
  TRACK 224 AUDIO
    TITLE "LR_black_phrase_A08_224"
    INDEX 01 05:05:60
  TRACK 225 AUDIO
    TITLE "LR_black_phrase_A08_225"
    INDEX 01 05:08:27
  TRACK 226 AUDIO
    TITLE "LR_black_phrase_A08_226"
    INDEX 01 05:09:28
  TRACK 227 AUDIO
    TITLE "LR_black_phrase_A08_227"
    INDEX 01 05:11:23
  TRACK 228 AUDIO
    TITLE "LR_black_phrase_A08_228"
    INDEX 01 05:11:56
  TRACK 229 AUDIO
    TITLE "LR_black_phrase_A08_229"
    INDEX 01 05:14:31
  TRACK 230 AUDIO
    TITLE "LR_black_phrase_A08_230"
    INDEX 01 05:14:49
  TRACK 231 AUDIO
    TITLE "LR_black_phrase_A08_231"
    INDEX 01 05:17:24
  TRACK 232 AUDIO
    TITLE "LR_black_phrase_A08_232"
    INDEX 01 05:18:17
  TRACK 233 AUDIO
    TITLE "LR_black_phrase_A08_233"
    INDEX 01 05:19:25
  TRACK 234 AUDIO
    TITLE "LR_black_phrase_A08_234"
    INDEX 01 05:19:60
  TRACK 235 AUDIO
    TITLE "LR_black_phrase_A08_235"
    INDEX 01 05:21:31
  TRACK 236 AUDIO
    TITLE "LR_black_phrase_A08_236"
    INDEX 01 05:22:31
  TRACK 237 AUDIO
    TITLE "LR_black_phrase_A08_237"
    INDEX 01 05:24:39
  TRACK 238 AUDIO
    TITLE "LR_black_phrase_A08_238"
    INDEX 01 05:24:75
  TRACK 239 AUDIO
    TITLE "LR_black_phrase_A08_239"
    INDEX 01 05:27:06
  TRACK 240 AUDIO
    TITLE "LR_black_phrase_A08_240"
    INDEX 01 05:27:28
  TRACK 241 AUDIO
    TITLE "LR_black_phrase_A08_241"
    INDEX 01 05:29:33
  TRACK 242 AUDIO
    TITLE "LR_black_phrase_A08_242"
    INDEX 01 05:30:34
  TRACK 243 AUDIO
    TITLE "LR_black_phrase_A08_243"
    INDEX 01 05:31:53
  TRACK 244 AUDIO
    TITLE "LR_black_phrase_A08_244"
    INDEX 01 05:32:17
  TRACK 245 AUDIO
    TITLE "LR_black_phrase_A08_245"
    INDEX 01 05:33:29
  TRACK 246 AUDIO
    TITLE "LR_black_phrase_A08_246"
    INDEX 01 05:34:28
  TRACK 247 AUDIO
    TITLE "LR_black_phrase_A08_247"
    INDEX 01 05:36:33
  TRACK 248 AUDIO
    TITLE "LR_black_phrase_A08_248"
    INDEX 01 05:36:72
  TRACK 249 AUDIO
    TITLE "LR_black_phrase_A08_249"
    INDEX 01 05:39:31
  TRACK 250 AUDIO
    TITLE "LR_black_phrase_A08_250"
    INDEX 01 05:39:59
  TRACK 251 AUDIO
    TITLE "LR_black_phrase_A08_251"
    INDEX 01 05:42:18
  TRACK 252 AUDIO
    TITLE "LR_black_phrase_A08_252"
    INDEX 01 05:43:21
  TRACK 253 AUDIO
    TITLE "LR_black_phrase_A08_253"
    INDEX 01 05:44:24
  TRACK 254 AUDIO
    TITLE "LR_black_phrase_A08_254"
    INDEX 01 05:44:62
  TRACK 255 AUDIO
    TITLE "LR_black_phrase_A08_255"
    INDEX 01 05:45:69
  TRACK 256 AUDIO
    TITLE "LR_black_phrase_A08_256"
    INDEX 01 05:46:70
  TRACK 257 AUDIO
    TITLE "LR_black_phrase_A08_257"
    INDEX 01 05:48:38
  TRACK 258 AUDIO
    TITLE "LR_black_phrase_A08_258"
    INDEX 01 05:49:02
  TRACK 259 AUDIO
    TITLE "LR_black_phrase_A08_259"
    INDEX 01 05:50:51
  TRACK 260 AUDIO
    TITLE "LR_black_phrase_A08_260"
    INDEX 01 05:51:03
  TRACK 261 AUDIO
    TITLE "LR_black_phrase_A08_261"
    INDEX 01 05:52:49
  TRACK 262 AUDIO
    TITLE "LR_black_phrase_A08_262"
    INDEX 01 05:53:53
  TRACK 263 AUDIO
    TITLE "LR_black_phrase_A08_263"
    INDEX 01 05:54:72
  TRACK 264 AUDIO
    TITLE "LR_black_phrase_A08_264"
    INDEX 01 05:55:38
  TRACK 265 AUDIO
    TITLE "LR_black_phrase_A08_265"
    INDEX 01 05:57:02
  TRACK 266 AUDIO
    TITLE "LR_black_phrase_A08_266"
    INDEX 01 05:58:05
  TRACK 267 AUDIO
    TITLE "LR_black_phrase_A08_267"
    INDEX 01 06:00:72
  TRACK 268 AUDIO
    TITLE "LR_black_phrase_A08_268"
    INDEX 01 06:01:37
  TRACK 269 AUDIO
    TITLE "LR_black_phrase_A08_269"
    INDEX 01 06:04:21
  TRACK 270 AUDIO
    TITLE "LR_black_phrase_A08_270"
    INDEX 01 06:04:49
  TRACK 271 AUDIO
    TITLE "LR_black_phrase_A08_271"
    INDEX 01 06:07:35
  TRACK 272 AUDIO
    TITLE "LR_black_phrase_A08_272"
    INDEX 01 06:08:35
  TRACK 273 AUDIO
    TITLE "LR_black_phrase_A08_273"
    INDEX 01 06:09:38
  TRACK 274 AUDIO
    TITLE "LR_black_phrase_A08_274"
    INDEX 01 06:09:73
  TRACK 275 AUDIO
    TITLE "LR_black_phrase_A08_275"
    INDEX 01 06:11:68
  TRACK 276 AUDIO
    TITLE "LR_black_phrase_A08_276"
    INDEX 01 06:12:68
  TRACK 277 AUDIO
    TITLE "LR_black_phrase_A08_277"
    INDEX 01 06:15:60
  TRACK 278 AUDIO
    TITLE "LR_black_phrase_A08_278"
    INDEX 01 06:16:21
  TRACK 279 AUDIO
    TITLE "LR_black_phrase_A08_279"
    INDEX 01 06:18:57
  TRACK 280 AUDIO
    TITLE "LR_black_phrase_A08_280"
    INDEX 01 06:19:01
  TRACK 281 AUDIO
    TITLE "LR_black_phrase_A08_281"
    INDEX 01 06:21:39
  TRACK 282 AUDIO
    TITLE "LR_black_phrase_A08_282"
    INDEX 01 06:22:35
  TRACK 283 AUDIO
    TITLE "LR_black_phrase_A08_283"
    INDEX 01 06:23:30
  TRACK 284 AUDIO
    TITLE "LR_black_phrase_A08_284"
    INDEX 01 06:23:68
  TRACK 285 AUDIO
    TITLE "LR_black_phrase_A08_285"
    INDEX 01 06:26:23
  TRACK 286 AUDIO
    TITLE "LR_black_phrase_A08_286"
    INDEX 01 06:27:18
  TRACK 287 AUDIO
    TITLE "LR_black_phrase_A08_287"
    INDEX 01 06:30:03
  TRACK 288 AUDIO
    TITLE "LR_black_phrase_A08_288"
    INDEX 01 06:30:38
  TRACK 289 AUDIO
    TITLE "LR_black_phrase_A08_289"
    INDEX 01 06:32:51
  TRACK 290 AUDIO
    TITLE "LR_black_phrase_A08_290"
    INDEX 01 06:32:72
  TRACK 291 AUDIO
    TITLE "LR_black_phrase_A08_291"
    INDEX 01 06:35:12
  TRACK 292 AUDIO
    TITLE "LR_black_phrase_A08_292"
    INDEX 01 06:36:08
  TRACK 293 AUDIO
    TITLE "LR_black_phrase_A08_293"
    INDEX 01 06:37:29
  TRACK 294 AUDIO
    TITLE "LR_black_phrase_A08_294"
    INDEX 01 06:37:64
  TRACK 295 AUDIO
    TITLE "LR_black_phrase_A08_295"
    INDEX 01 06:39:24
  TRACK 296 AUDIO
    TITLE "LR_black_phrase_A08_296"
    INDEX 01 06:40:21
  TRACK 297 AUDIO
    TITLE "LR_black_phrase_A08_297"
    INDEX 01 06:41:70
  TRACK 298 AUDIO
    TITLE "LR_black_phrase_A08_298"
    INDEX 01 06:42:30
  TRACK 299 AUDIO
    TITLE "LR_black_phrase_A08_299"
    INDEX 01 06:44:05
  TRACK 300 AUDIO
    TITLE "LR_black_phrase_A08_300"
    INDEX 01 06:44:23
  TRACK 301 AUDIO
    TITLE "LR_black_phrase_A08_301"
    INDEX 01 06:45:71
